<svg xmlns="http://www.w3.org/2000/svg" width="296" height="341" viewBox="0 0 296 341">
      <style>
        .pet { transform-origin: center; }
      </style>
      <!-- Theme Background -->
      
        <rect x="5" y="5" width="286" height="326" rx="12" ry="12" fill="rgba(45, 51, 59, 0.15)"/>
      
      <!-- Weather Effects (behind pet) -->
      <g class="weather-layer" style="pointer-events: none;">
        
        <g opacity="0.6">
          <line x1="10" y1="-10" x2="5" y2="10" stroke="#4FC3F7" stroke-width="2" stroke-linecap="round">
          <animate attributeName="y1" values="-10;351" dur="0.7s" begin="0s" repeatCount="indefinite"/>
          <animate attributeName="y2" values="10;371" dur="0.7s" begin="0s" repeatCount="indefinite"/>
        </line><line x1="24.8" y1="-10" x2="19.8" y2="10" stroke="#4FC3F7" stroke-width="2" stroke-linecap="round">
          <animate attributeName="y1" values="-10;351" dur="0.7s" begin="0.1s" repeatCount="indefinite"/>
          <animate attributeName="y2" values="10;371" dur="0.7s" begin="0.1s" repeatCount="indefinite"/>
        </line><line x1="39.6" y1="-10" x2="34.6" y2="10" stroke="#4FC3F7" stroke-width="2" stroke-linecap="round">
          <animate attributeName="y1" values="-10;351" dur="0.7s" begin="0.2s" repeatCount="indefinite"/>
          <animate attributeName="y2" values="10;371" dur="0.7s" begin="0.2s" repeatCount="indefinite"/>
        </line><line x1="54.400000000000006" y1="-10" x2="49.400000000000006" y2="10" stroke="#4FC3F7" stroke-width="2" stroke-linecap="round">
          <animate attributeName="y1" values="-10;351" dur="0.7s" begin="0.30000000000000004s" repeatCount="indefinite"/>
          <animate attributeName="y2" values="10;371" dur="0.7s" begin="0.30000000000000004s" repeatCount="indefinite"/>
        </line><line x1="69.2" y1="-10" x2="64.2" y2="10" stroke="#4FC3F7" stroke-width="2" stroke-linecap="round">
          <animate attributeName="y1" values="-10;351" dur="0.7s" begin="0.4s" repeatCount="indefinite"/>
          <animate attributeName="y2" values="10;371" dur="0.7s" begin="0.4s" repeatCount="indefinite"/>
        </line><line x1="84" y1="-10" x2="79" y2="10" stroke="#4FC3F7" stroke-width="2" stroke-linecap="round">
          <animate attributeName="y1" values="-10;351" dur="0.7s" begin="0.5s" repeatCount="indefinite"/>
          <animate attributeName="y2" values="10;371" dur="0.7s" begin="0.5s" repeatCount="indefinite"/>
        </line><line x1="98.80000000000001" y1="-10" x2="93.80000000000001" y2="10" stroke="#4FC3F7" stroke-width="2" stroke-linecap="round">
          <animate attributeName="y1" values="-10;351" dur="0.7s" begin="0.6000000000000001s" repeatCount="indefinite"/>
          <animate attributeName="y2" values="10;371" dur="0.7s" begin="0.6000000000000001s" repeatCount="indefinite"/>
        </line><line x1="113.60000000000001" y1="-10" x2="108.60000000000001" y2="10" stroke="#4FC3F7" stroke-width="2" stroke-linecap="round">
          <animate attributeName="y1" values="-10;351" dur="0.7s" begin="0.7000000000000001s" repeatCount="indefinite"/>
          <animate attributeName="y2" values="10;371" dur="0.7s" begin="0.7000000000000001s" repeatCount="indefinite"/>
        </line><line x1="128.4" y1="-10" x2="123.4" y2="10" stroke="#4FC3F7" stroke-width="2" stroke-linecap="round">
          <animate attributeName="y1" values="-10;351" dur="0.7s" begin="0.8s" repeatCount="indefinite"/>
          <animate attributeName="y2" values="10;371" dur="0.7s" begin="0.8s" repeatCount="indefinite"/>
        </line><line x1="143.20000000000002" y1="-10" x2="138.20000000000002" y2="10" stroke="#4FC3F7" stroke-width="2" stroke-linecap="round">
          <animate attributeName="y1" values="-10;351" dur="0.7s" begin="0.9s" repeatCount="indefinite"/>
          <animate attributeName="y2" values="10;371" dur="0.7s" begin="0.9s" repeatCount="indefinite"/>
        </line><line x1="158" y1="-10" x2="153" y2="10" stroke="#4FC3F7" stroke-width="2" stroke-linecap="round">
          <animate attributeName="y1" values="-10;351" dur="0.7s" begin="0s" repeatCount="indefinite"/>
          <animate attributeName="y2" values="10;371" dur="0.7s" begin="0s" repeatCount="indefinite"/>
        </line><line x1="172.8" y1="-10" x2="167.8" y2="10" stroke="#4FC3F7" stroke-width="2" stroke-linecap="round">
          <animate attributeName="y1" values="-10;351" dur="0.7s" begin="0.10000000000000009s" repeatCount="indefinite"/>
          <animate attributeName="y2" values="10;371" dur="0.7s" begin="0.10000000000000009s" repeatCount="indefinite"/>
        </line><line x1="187.60000000000002" y1="-10" x2="182.60000000000002" y2="10" stroke="#4FC3F7" stroke-width="2" stroke-linecap="round">
          <animate attributeName="y1" values="-10;351" dur="0.7s" begin="0.20000000000000018s" repeatCount="indefinite"/>
          <animate attributeName="y2" values="10;371" dur="0.7s" begin="0.20000000000000018s" repeatCount="indefinite"/>
        </line><line x1="202.4" y1="-10" x2="197.4" y2="10" stroke="#4FC3F7" stroke-width="2" stroke-linecap="round">
          <animate attributeName="y1" values="-10;351" dur="0.7s" begin="0.30000000000000004s" repeatCount="indefinite"/>
          <animate attributeName="y2" values="10;371" dur="0.7s" begin="0.30000000000000004s" repeatCount="indefinite"/>
        </line><line x1="217.20000000000002" y1="-10" x2="212.20000000000002" y2="10" stroke="#4FC3F7" stroke-width="2" stroke-linecap="round">
          <animate attributeName="y1" values="-10;351" dur="0.7s" begin="0.40000000000000013s" repeatCount="indefinite"/>
          <animate attributeName="y2" values="10;371" dur="0.7s" begin="0.40000000000000013s" repeatCount="indefinite"/>
        </line><line x1="232" y1="-10" x2="227" y2="10" stroke="#4FC3F7" stroke-width="2" stroke-linecap="round">
          <animate attributeName="y1" values="-10;351" dur="0.7s" begin="0.5s" repeatCount="indefinite"/>
          <animate attributeName="y2" values="10;371" dur="0.7s" begin="0.5s" repeatCount="indefinite"/>
        </line><line x1="246.8" y1="-10" x2="241.8" y2="10" stroke="#4FC3F7" stroke-width="2" stroke-linecap="round">
          <animate attributeName="y1" values="-10;351" dur="0.7s" begin="0.6000000000000001s" repeatCount="indefinite"/>
          <animate attributeName="y2" values="10;371" dur="0.7s" begin="0.6000000000000001s" repeatCount="indefinite"/>
        </line><line x1="261.6" y1="-10" x2="256.6" y2="10" stroke="#4FC3F7" stroke-width="2" stroke-linecap="round">
          <animate attributeName="y1" values="-10;351" dur="0.7s" begin="0.7000000000000002s" repeatCount="indefinite"/>
          <animate attributeName="y2" values="10;371" dur="0.7s" begin="0.7000000000000002s" repeatCount="indefinite"/>
        </line><line x1="276.40000000000003" y1="-10" x2="271.40000000000003" y2="10" stroke="#4FC3F7" stroke-width="2" stroke-linecap="round">
          <animate attributeName="y1" values="-10;351" dur="0.7s" begin="0.8s" repeatCount="indefinite"/>
          <animate attributeName="y2" values="10;371" dur="0.7s" begin="0.8s" repeatCount="indefinite"/>
        </line><line x1="291.2" y1="-10" x2="286.2" y2="10" stroke="#4FC3F7" stroke-width="2" stroke-linecap="round">
          <animate attributeName="y1" values="-10;351" dur="0.7s" begin="0.9000000000000001s" repeatCount="indefinite"/>
          <animate attributeName="y2" values="10;371" dur="0.7s" begin="0.9000000000000001s" repeatCount="indefinite"/>
        </line>
        </g>
      
      </g>
      <!-- Evolution Effects (behind pet) -->
      <g class="evolution-layer" style="pointer-events: none;">
        
      <defs>
        <radialGradient id="evolutionAura">
          <stop offset="0%" stop-color="#FFD700" stop-opacity="0.6"/>
          <stop offset="70%" stop-color="#FFD700" stop-opacity="0.2"/>
          <stop offset="100%" stop-color="#FFD700" stop-opacity="0"/>
        </radialGradient>
        <filter id="evolutionGlow">
          <feGaussianBlur stdDeviation="3" result="coloredBlur"/>
          <feMerge>
            <feMergeNode in="coloredBlur"/>
            <feMergeNode in="SourceGraphic"/>
          </feMerge>
        </filter>
      </defs>
      <circle cx="148" cy="148" r="45" fill="url(#evolutionAura)">
        <animate attributeName="r" values="45;53;45" dur="2s" repeatCount="indefinite"/>
        <animate attributeName="opacity" values="0.7;1;0.7" dur="2s" repeatCount="indefinite"/>
      </circle>
    
      </g>
      <g transform="translate(20, 20)" opacity="1">
        <g class="pet">
            <rect x="64" y="16" width="16" height="16" fill="#2d333b" /><rect x="80" y="16" width="16" height="16" fill="#2d333b" /><rect x="96" y="16" width="16" height="16" fill="#2d333b" /><rect x="112" y="16" width="16" height="16" fill="#2d333b" /><rect x="128" y="16" width="16" height="16" fill="#2d333b" /><rect x="144" y="16" width="16" height="16" fill="#2d333b" /><rect x="160" y="16" width="16" height="16" fill="#2d333b" /><rect x="176" y="16" width="16" height="16" fill="#2d333b" /><rect x="32" y="32" width="16" height="16" fill="#2d333b" /><rect x="48" y="32" width="16" height="16" fill="#2d333b" /><rect x="64" y="32" width="16" height="16" fill="#00ADD8" /><rect x="80" y="32" width="16" height="16" fill="#00ADD8" /><rect x="96" y="32" width="16" height="16" fill="#00ADD8" /><rect x="112" y="32" width="16" height="16" fill="#00ADD8" /><rect x="128" y="32" width="16" height="16" fill="#00ADD8" /><rect x="144" y="32" width="16" height="16" fill="#00ADD8" /><rect x="160" y="32" width="16" height="16" fill="#00ADD8" /><rect x="176" y="32" width="16" height="16" fill="#00ADD8" /><rect x="192" y="32" width="16" height="16" fill="#2d333b" /><rect x="208" y="32" width="16" height="16" fill="#2d333b" /><rect x="16" y="48" width="16" height="16" fill="#2d333b" /><rect x="32" y="48" width="16" height="16" fill="#00ADD8" /><rect x="48" y="48" width="16" height="16" fill="#00ADD8" /><rect x="64" y="48" width="16" height="16" fill="#2d333b" /><rect x="80" y="48" width="16" height="16" fill="#2d333b" /><rect x="96" y="48" width="16" height="16" fill="#2d333b" /><rect x="112" y="48" width="16" height="16" fill="#2d333b" /><rect x="128" y="48" width="16" height="16" fill="#2d333b" /><rect x="144" y="48" width="16" height="16" fill="#2d333b" /><rect x="160" y="48" width="16" height="16" fill="#00ADD8" /><rect x="176" y="48" width="16" height="16" fill="#00ADD8" /><rect x="192" y="48" width="16" height="16" fill="#00ADD8" /><rect x="208" y="48" width="16" height="16" fill="#00ADD8" /><rect x="224" y="48" width="16" height="16" fill="#2d333b" /><rect x="16" y="64" width="16" height="16" fill="#2d333b" /><rect x="32" y="64" width="16" height="16" fill="#00ADD8" /><rect x="48" y="64" width="16" height="16" fill="#00ADD8" /><rect x="64" y="64" width="16" height="16" fill="#00ADD8" /><rect x="80" y="64" width="16" height="16" fill="#00ADD8" /><rect x="96" y="64" width="16" height="16" fill="#00ADD8" /><rect x="112" y="64" width="16" height="16" fill="#00ADD8" /><rect x="128" y="64" width="16" height="16" fill="#00ADD8" /><rect x="144" y="64" width="16" height="16" fill="#00ADD8" /><rect x="160" y="64" width="16" height="16" fill="#00ADD8" /><rect x="176" y="64" width="16" height="16" fill="#00ADD8" /><rect x="192" y="64" width="16" height="16" fill="#00ADD8" /><rect x="208" y="64" width="16" height="16" fill="#2d333b" /><rect x="0" y="80" width="16" height="16" fill="#2d333b" /><rect x="16" y="80" width="16" height="16" fill="#00ADD8" /><rect x="32" y="80" width="16" height="16" fill="#00ADD8" /><rect x="48" y="80" width="16" height="16" fill="#00ADD8" /><rect x="64" y="80" width="16" height="16" fill="#00ADD8" /><rect x="80" y="80" width="16" height="16" fill="#00ADD8" /><rect x="96" y="80" width="16" height="16" fill="#00ADD8" /><rect x="112" y="80" width="16" height="16" fill="#00ADD8" /><rect x="128" y="80" width="16" height="16" fill="#00ADD8" /><rect x="144" y="80" width="16" height="16" fill="#00ADD8" /><rect x="160" y="80" width="16" height="16" fill="#00ADD8" /><rect x="176" y="80" width="16" height="16" fill="#00ADD8" /><rect x="192" y="80" width="16" height="16" fill="#00ADD8" /><rect x="208" y="80" width="16" height="16" fill="#00ADD8" /><rect x="224" y="80" width="16" height="16" fill="#2d333b" /><rect x="0" y="96" width="16" height="16" fill="#2d333b" /><rect x="16" y="96" width="16" height="16" fill="#00ADD8" /><rect x="32" y="96" width="16" height="16" fill="#00ADD8" /><rect x="48" y="96" width="16" height="16" fill="#00ADD8" /><rect x="64" y="96" width="16" height="16" fill="#00ADD8" /><rect x="80" y="96" width="16" height="16" fill="#2d333b" /><rect x="96" y="96" width="16" height="16" fill="#00ADD8" /><rect x="112" y="96" width="16" height="16" fill="#00ADD8" /><rect x="128" y="96" width="16" height="16" fill="#00ADD8" /><rect x="144" y="96" width="16" height="16" fill="#00ADD8" /><rect x="160" y="96" width="16" height="16" fill="#00ADD8" /><rect x="176" y="96" width="16" height="16" fill="#00ADD8" /><rect x="192" y="96" width="16" height="16" fill="#00ADD8" /><rect x="208" y="96" width="16" height="16" fill="#00ADD8" /><rect x="224" y="96" width="16" height="16" fill="#2d333b" /><rect x="16" y="112" width="16" height="16" fill="#2d333b" /><rect x="32" y="112" width="16" height="16" fill="#00ADD8" /><rect x="48" y="112" width="16" height="16" fill="#00ADD8" /><rect x="64" y="112" width="16" height="16" fill="#00ADD8" /><rect x="80" y="112" width="16" height="16" fill="#2d333b" /><rect x="96" y="112" width="16" height="16" fill="#00ADD8" /><rect x="112" y="112" width="16" height="16" fill="#00ADD8" /><rect x="128" y="112" width="16" height="16" fill="#00ADD8" /><rect x="144" y="112" width="16" height="16" fill="#00ADD8" /><rect x="160" y="112" width="16" height="16" fill="#00ADD8" /><rect x="176" y="112" width="16" height="16" fill="#00ADD8" /><rect x="192" y="112" width="16" height="16" fill="#2d333b" /><rect x="32" y="128" width="16" height="16" fill="#2d333b" /><rect x="48" y="128" width="16" height="16" fill="#00ADD8" /><rect x="64" y="128" width="16" height="16" fill="#00ADD8" /><rect x="80" y="128" width="16" height="16" fill="#2d333b" /><rect x="96" y="128" width="16" height="16" fill="#00ADD8" /><rect x="112" y="128" width="16" height="16" fill="#00ADD8" /><rect x="128" y="128" width="16" height="16" fill="#00ADD8" /><rect x="144" y="128" width="16" height="16" fill="#00ADD8" /><rect x="160" y="128" width="16" height="16" fill="#00ADD8" /><rect x="176" y="128" width="16" height="16" fill="#2d333b" /><rect x="32" y="144" width="16" height="16" fill="#2d333b" /><rect x="48" y="144" width="16" height="16" fill="#00ADD8" /><rect x="64" y="144" width="16" height="16" fill="#2d333b" /><rect x="80" y="144" width="16" height="16" fill="#00ADD8" /><rect x="96" y="144" width="16" height="16" fill="#00ADD8" /><rect x="112" y="144" width="16" height="16" fill="#00ADD8" /><rect x="128" y="144" width="16" height="16" fill="#00ADD8" /><rect x="144" y="144" width="16" height="16" fill="#00ADD8" /><rect x="160" y="144" width="16" height="16" fill="#00ADD8" /><rect x="176" y="144" width="16" height="16" fill="#2d333b" /><rect x="48" y="160" width="16" height="16" fill="#2d333b" /><rect x="64" y="160" width="16" height="16" fill="#2d333b" /><rect x="80" y="160" width="16" height="16" fill="#00ADD8" /><rect x="96" y="160" width="16" height="16" fill="#00ADD8" /><rect x="112" y="160" width="16" height="16" fill="#00ADD8" /><rect x="128" y="160" width="16" height="16" fill="#00ADD8" /><rect x="144" y="160" width="16" height="16" fill="#00ADD8" /><rect x="160" y="160" width="16" height="16" fill="#2d333b" /><rect x="64" y="176" width="16" height="16" fill="#2d333b" /><rect x="80" y="176" width="16" height="16" fill="#2d333b" /><rect x="96" y="176" width="16" height="16" fill="#2d333b" /><rect x="112" y="176" width="16" height="16" fill="#2d333b" /><rect x="128" y="176" width="16" height="16" fill="#2d333b" /><rect x="144" y="176" width="16" height="16" fill="#2d333b" />
            
        <animateTransform 
            attributeName="transform" 
            type="scale" 
            values="1 1; 1.02 0.98; 1 1" 
            dur="2s" 
            repeatCount="indefinite" 
        />
        </g>
        <!-- Speech Bubble -->
        
    <g transform="translate(226, -25)">
      <!-- Speech bubble -->
      <rect x="0" y="0" width="139" height="24" rx="10" ry="10" 
            fill="#FFFFFF" stroke="#2d333b" stroke-width="1.5"/>
      <!-- Bubble tail -->
      <polygon points="15,24 20,32 25,24" 
               fill="#FFFFFF" stroke="#2d333b" stroke-width="1.5"/>
      <line x1="16" y1="24" x2="24" y2="24" stroke="#FFFFFF" stroke-width="2"/>
      <!-- Text -->
      <text x="69.5" y="16" 
            font-family="'Segoe UI', Arial, sans-serif" font-size="10" 
            fill="#2d333b" text-anchor="middle">Do not disturb...</text>
    </g>
  
        <!-- Seasonal Accessory (z-index: above pet) -->
        
      </g>
      
      <!-- Level & Mood Text -->
      <text x="20" y="299" font-family="monospace" font-size="11" fill="#666">
        ⭐ Lv.44 Adult
      </text>
      <text x="276" y="299" text-anchor="end" font-family="monospace" font-size="11" fill="#666">
        💤 SLEEPING 
      </text>
      
      <!-- XP Progress Bar -->
      <rect x="20" y="306" width="256" height="8" rx="4" fill="#e0e0e0" stroke="#0288d1" stroke-width="1"/>
      <rect x="20" y="306" width="232.96" height="8" rx="4" fill="#4fc3f7">
        <animate attributeName="width" from="0" to="232.96" dur="0.5s" fill="freeze"/>
      </rect>
      
      <!-- XP Text -->
      <text x="50%" y="329" text-anchor="middle" font-family="monospace" font-size="9" fill="#666">
        XP: 19290 / 19360 (91%)
      </text>
    
      
      <!-- Achievement Badges -->
      <g transform="translate(15, 311)">
    <g class="achievements">
      
      <g transform="translate(5, 0)">
        <title>Rising Star: Level 5</title>
        <circle cx="10" cy="10" r="10" fill="rgba(255,255,255,0.9)" stroke="#ddd" stroke-width="1"/>
        <text x="10" y="14" text-anchor="middle" font-size="11">🌟</text>
      </g>
    
      <g transform="translate(30, 0)">
        <title>Shining: Level 10</title>
        <circle cx="10" cy="10" r="10" fill="rgba(255,255,255,0.9)" stroke="#ddd" stroke-width="1"/>
        <text x="10" y="14" text-anchor="middle" font-size="11">✨</text>
      </g>
    
      <g transform="translate(55, 0)">
        <title>Rainbow: Level 25</title>
        <circle cx="10" cy="10" r="10" fill="rgba(255,255,255,0.9)" stroke="#ddd" stroke-width="1"/>
        <text x="10" y="14" text-anchor="middle" font-size="11">🌈</text>
      </g>
    
      <g transform="translate(80, 0)">
        <title>Weekend Warrior: Weekend commit</title>
        <circle cx="10" cy="10" r="10" fill="rgba(255,255,255,0.9)" stroke="#ddd" stroke-width="1"/>
        <text x="10" y="14" text-anchor="middle" font-size="11">🏖️</text>
      </g>
    
      
    </g>
  </g>
    </svg>