<svg xmlns="http://www.w3.org/2000/svg" width="296" height="311" viewBox="0 0 296 311">
      <style>
        .pet { transform-origin: center; }
      </style>
      <!-- Theme Background -->
      
        <rect x="5" y="5" width="286" height="296" rx="12" ry="12" fill="rgba(45, 51, 59, 0.15)"/>
      
      <g transform="translate(20, 20)" opacity="1">
        <g class="pet">
            <rect x="176" y="32" width="16" height="16" fill="#2e7d32" /><rect x="192" y="32" width="16" height="16" fill="#2e7d32" /><rect x="208" y="32" width="16" height="16" fill="#2e7d32" /><rect x="224" y="32" width="16" height="16" fill="#2d333b" /><rect x="160" y="48" width="16" height="16" fill="#2d333b" /><rect x="176" y="48" width="16" height="16" fill="#2e7d32" /><rect x="192" y="48" width="16" height="16" fill="#2d333b" /><rect x="208" y="48" width="16" height="16" fill="#2e7d32" /><rect x="224" y="48" width="16" height="16" fill="#2e7d32" /><rect x="240" y="48" width="16" height="16" fill="#2e7d32" /><rect x="160" y="64" width="16" height="16" fill="#2d333b" /><rect x="176" y="64" width="16" height="16" fill="#2e7d32" /><rect x="192" y="64" width="16" height="16" fill="#2e7d32" /><rect x="208" y="64" width="16" height="16" fill="#2e7d32" /><rect x="224" y="64" width="16" height="16" fill="#2e7d32" /><rect x="240" y="64" width="16" height="16" fill="#2e7d32" /><rect x="160" y="80" width="16" height="16" fill="#2d333b" /><rect x="176" y="80" width="16" height="16" fill="#2d333b" /><rect x="192" y="80" width="16" height="16" fill="#2e7d32" /><rect x="208" y="80" width="16" height="16" fill="#2e7d32" /><rect x="224" y="80" width="16" height="16" fill="#2e7d32" /><rect x="240" y="80" width="16" height="16" fill="#2d333b" /><rect x="0" y="96" width="16" height="16" fill="#2e7d32" /><rect x="112" y="96" width="16" height="16" fill="#2d333b" /><rect x="128" y="96" width="16" height="16" fill="#2e7d32" /><rect x="144" y="96" width="16" height="16" fill="#2e7d32" /><rect x="160" y="96" width="16" height="16" fill="#2e7d32" /><rect x="176" y="96" width="16" height="16" fill="#98c379" /><rect x="192" y="96" width="16" height="16" fill="#98c379" /><rect x="0" y="112" width="16" height="16" fill="#2e7d32" /><rect x="16" y="112" width="16" height="16" fill="#2e7d32" /><rect x="32" y="112" width="16" height="16" fill="#2d333b" /><rect x="48" y="112" width="16" height="16" fill="#2d333b" /><rect x="64" y="112" width="16" height="16" fill="#2d333b" /><rect x="80" y="112" width="16" height="16" fill="#2d333b" /><rect x="96" y="112" width="16" height="16" fill="#2e7d32" /><rect x="112" y="112" width="16" height="16" fill="#2e7d32" /><rect x="128" y="112" width="16" height="16" fill="#2e7d32" /><rect x="144" y="112" width="16" height="16" fill="#2e7d32" /><rect x="160" y="112" width="16" height="16" fill="#2e7d32" /><rect x="176" y="112" width="16" height="16" fill="#98c379" /><rect x="192" y="112" width="16" height="16" fill="#98c379" /><rect x="16" y="128" width="16" height="16" fill="#2d333b" /><rect x="32" y="128" width="16" height="16" fill="#98c379" /><rect x="48" y="128" width="16" height="16" fill="#2e7d32" /><rect x="64" y="128" width="16" height="16" fill="#2e7d32" /><rect x="80" y="128" width="16" height="16" fill="#2e7d32" /><rect x="96" y="128" width="16" height="16" fill="#2e7d32" /><rect x="112" y="128" width="16" height="16" fill="#2e7d32" /><rect x="128" y="128" width="16" height="16" fill="#2e7d32" /><rect x="144" y="128" width="16" height="16" fill="#2e7d32" /><rect x="160" y="128" width="16" height="16" fill="#98c379" /><rect x="176" y="128" width="16" height="16" fill="#98c379" /><rect x="192" y="128" width="16" height="16" fill="#98c379" /><rect x="48" y="144" width="16" height="16" fill="#2d333b" /><rect x="64" y="144" width="16" height="16" fill="#98c379" /><rect x="80" y="144" width="16" height="16" fill="#98c379" /><rect x="96" y="144" width="16" height="16" fill="#2e7d32" /><rect x="112" y="144" width="16" height="16" fill="#2e7d32" /><rect x="128" y="144" width="16" height="16" fill="#2d333b" /><rect x="144" y="144" width="16" height="16" fill="#98c379" /><rect x="160" y="144" width="16" height="16" fill="#98c379" /><rect x="176" y="144" width="16" height="16" fill="#2d333b" /><rect x="208" y="144" width="16" height="16" fill="#2d333b" /><rect x="80" y="160" width="16" height="16" fill="#2d333b" /><rect x="96" y="160" width="16" height="16" fill="#2e7d32" /><rect x="112" y="160" width="16" height="16" fill="#2e7d32" /><rect x="128" y="160" width="16" height="16" fill="#2d333b" /><rect x="144" y="160" width="16" height="16" fill="#98c379" /><rect x="160" y="160" width="16" height="16" fill="#98c379" /><rect x="176" y="160" width="16" height="16" fill="#2d333b" /><rect x="96" y="176" width="16" height="16" fill="#2e7d32" /><rect x="112" y="176" width="16" height="16" fill="#2e7d32" /><rect x="128" y="176" width="16" height="16" fill="#2d333b" /><rect x="160" y="176" width="16" height="16" fill="#2e7d32" /><rect x="176" y="176" width="16" height="16" fill="#2d333b" /><rect x="96" y="192" width="16" height="16" fill="#2e7d32" /><rect x="112" y="192" width="16" height="16" fill="#2d333b" /><rect x="144" y="192" width="16" height="16" fill="#2d333b" /><rect x="160" y="192" width="16" height="16" fill="#2e7d32" /><rect x="96" y="208" width="16" height="16" fill="#2e7d32" /><rect x="112" y="208" width="16" height="16" fill="#2e7d32" /><rect x="144" y="208" width="16" height="16" fill="#2d333b" /><rect x="160" y="208" width="16" height="16" fill="#2d333b" />
            
        <animateTransform 
            attributeName="transform" 
            type="scale" 
            values="1 1; 1.02 0.98; 1 1" 
            dur="2s" 
            repeatCount="indefinite" 
        />
        </g>
        <!-- Seasonal Accessory (z-index: above pet) -->
        
      </g>
      
      <text x="50%" y="306" text-anchor="middle" font-family="monospace" font-size="11" fill="#666">
        Lvl 7 • 💤 SLEEPING
      </text>
    
      
    </svg>