<svg xmlns="http://www.w3.org/2000/svg" width="296" height="341" viewBox="0 0 296 341">
      <style>
        .pet { transform-origin: center; }
      </style>
      <!-- Theme Background -->
      
        <rect x="5" y="5" width="286" height="326" rx="12" ry="12" fill="rgba(45, 51, 59, 0.15)"/>
      
      <!-- Weather Effects (behind pet) -->
      <g class="weather-layer" style="pointer-events: none;">
        
        <g>
          <circle cx="154.8267727920217" cy="96.18713643241001" r="3" fill="#FFEB3B" opacity="0.8">
          <animate attributeName="cx" values="154.8267727920217;160.63103998780295;154.8267727920217" dur="5.954274998476015s" repeatCount="indefinite"/>
          <animate attributeName="cy" values="96.18713643241001;103.08112364280409;96.18713643241001" dur="5.954274998476015s" repeatCount="indefinite"/>
          <animate attributeName="opacity" values="0.3;0.9;0.3" dur="1.5s" repeatCount="indefinite"/>
        </circle><circle cx="97.90635461398631" cy="230.90465885842988" r="3" fill="#FFEB3B" opacity="0.8">
          <animate attributeName="cx" values="97.90635461398631;73.3131795319455;97.90635461398631" dur="6.518870331308564s" repeatCount="indefinite"/>
          <animate attributeName="cy" values="230.90465885842988;202.27993564645567;230.90465885842988" dur="6.518870331308564s" repeatCount="indefinite"/>
          <animate attributeName="opacity" values="0.3;0.9;0.3" dur="1.5s" repeatCount="indefinite"/>
        </circle><circle cx="44.270995698019874" cy="247.60263131712614" r="3" fill="#FFEB3B" opacity="0.8">
          <animate attributeName="cx" values="44.270995698019874;17.72497167214756;44.270995698019874" dur="3.0813865722711595s" repeatCount="indefinite"/>
          <animate attributeName="cy" values="247.60263131712614;219.66647872153257;247.60263131712614" dur="3.0813865722711595s" repeatCount="indefinite"/>
          <animate attributeName="opacity" values="0.3;0.9;0.3" dur="1.5s" repeatCount="indefinite"/>
        </circle><circle cx="124.39371939002325" cy="98.26718022225764" r="3" fill="#FFEB3B" opacity="0.8">
          <animate attributeName="cx" values="124.39371939002325;101.71041515185912;124.39371939002325" dur="3.628305105927584s" repeatCount="indefinite"/>
          <animate attributeName="cy" values="98.26718022225764;96.44533907956843;98.26718022225764" dur="3.628305105927584s" repeatCount="indefinite"/>
          <animate attributeName="opacity" values="0.3;0.9;0.3" dur="1.5s" repeatCount="indefinite"/>
        </circle><circle cx="206.0272800973126" cy="191.27359512287663" r="3" fill="#FFEB3B" opacity="0.8">
          <animate attributeName="cx" values="206.0272800973126;200.47120403736747;206.0272800973126" dur="6.909957397645418s" repeatCount="indefinite"/>
          <animate attributeName="cy" values="191.27359512287663;186.4721446687256;191.27359512287663" dur="6.909957397645418s" repeatCount="indefinite"/>
          <animate attributeName="opacity" values="0.3;0.9;0.3" dur="1.5s" repeatCount="indefinite"/>
        </circle><circle cx="250.45255944721947" cy="249.64954308733235" r="3" fill="#FFEB3B" opacity="0.8">
          <animate attributeName="cx" values="250.45255944721947;248.13797274929175;250.45255944721947" dur="6.825341182028472s" repeatCount="indefinite"/>
          <animate attributeName="cy" values="249.64954308733235;244.92439824456252;249.64954308733235" dur="6.825341182028472s" repeatCount="indefinite"/>
          <animate attributeName="opacity" values="0.3;0.9;0.3" dur="1.5s" repeatCount="indefinite"/>
        </circle><circle cx="104.87127063971684" cy="263.69151602701675" r="3" fill="#FFEB3B" opacity="0.8">
          <animate attributeName="cx" values="104.87127063971684;128.64968652764628;104.87127063971684" dur="5.913504290796764s" repeatCount="indefinite"/>
          <animate attributeName="cy" values="263.69151602701675;235.26415006034466;263.69151602701675" dur="5.913504290796764s" repeatCount="indefinite"/>
          <animate attributeName="opacity" values="0.3;0.9;0.3" dur="1.5s" repeatCount="indefinite"/>
        </circle><circle cx="211.1441655046376" cy="161.28193277556798" r="3" fill="#FFEB3B" opacity="0.8">
          <animate attributeName="cx" values="211.1441655046376;206.92672199331665;211.1441655046376" dur="5.7246317181763535s" repeatCount="indefinite"/>
          <animate attributeName="cy" values="161.28193277556798;137.61719639609777;161.28193277556798" dur="5.7246317181763535s" repeatCount="indefinite"/>
          <animate attributeName="opacity" values="0.3;0.9;0.3" dur="1.5s" repeatCount="indefinite"/>
        </circle><circle cx="30.57949065583358" cy="103.78772231834769" r="3" fill="#FFEB3B" opacity="0.8">
          <animate attributeName="cx" values="30.57949065583358;56.054923269810075;30.57949065583358" dur="6.514197674732574s" repeatCount="indefinite"/>
          <animate attributeName="cy" values="103.78772231834769;111.944806564864;103.78772231834769" dur="6.514197674732574s" repeatCount="indefinite"/>
          <animate attributeName="opacity" values="0.3;0.9;0.3" dur="1.5s" repeatCount="indefinite"/>
        </circle><circle cx="83.27946440992054" cy="168.1331745221136" r="3" fill="#FFEB3B" opacity="0.8">
          <animate attributeName="cx" values="83.27946440992054;92.9819722970522;83.27946440992054" dur="4.007006849287719s" repeatCount="indefinite"/>
          <animate attributeName="cy" values="168.1331745221136;169.1936935949439;168.1331745221136" dur="4.007006849287719s" repeatCount="indefinite"/>
          <animate attributeName="opacity" values="0.3;0.9;0.3" dur="1.5s" repeatCount="indefinite"/>
        </circle>
        </g>
      
      </g>
      <!-- Evolution Effects (behind pet) -->
      <g class="evolution-layer" style="pointer-events: none;">
        
      </g>
      <g transform="translate(20, 20)" opacity="0.7">
        <g class="pet">
            <rect x="80" y="0" width="16" height="16" fill="#2d333b" /><rect x="112" y="0" width="16" height="16" fill="#2d333b" /><rect x="144" y="0" width="16" height="16" fill="#2d333b" /><rect x="48" y="16" width="16" height="16" fill="#2d333b" /><rect x="80" y="16" width="16" height="16" fill="#00ADD8" /><rect x="112" y="16" width="16" height="16" fill="#00ADD8" /><rect x="144" y="16" width="16" height="16" fill="#00ADD8" /><rect x="176" y="16" width="16" height="16" fill="#00ADD8" /><rect x="208" y="16" width="16" height="16" fill="#2d333b" /><rect x="32" y="32" width="16" height="16" fill="#2d333b" /><rect x="64" y="32" width="16" height="16" fill="#00ADD8" /><rect x="96" y="32" width="16" height="16" fill="#00ADD8" /><rect x="128" y="32" width="16" height="16" fill="#00ADD8" /><rect x="160" y="32" width="16" height="16" fill="#00ADD8" /><rect x="192" y="32" width="16" height="16" fill="#00ADD8" /><rect x="16" y="48" width="16" height="16" fill="#2d333b" /><rect x="48" y="48" width="16" height="16" fill="#00ADD8" /><rect x="80" y="48" width="16" height="16" fill="#2d333b" /><rect x="112" y="48" width="16" height="16" fill="#2d333b" /><rect x="144" y="48" width="16" height="16" fill="#00ADD8" /><rect x="176" y="48" width="16" height="16" fill="#00ADD8" /><rect x="208" y="48" width="16" height="16" fill="#2d333b" /><rect x="16" y="64" width="16" height="16" fill="#2d333b" /><rect x="48" y="64" width="16" height="16" fill="#00ADD8" /><rect x="80" y="64" width="16" height="16" fill="#2d333b" /><rect x="112" y="64" width="16" height="16" fill="#2d333b" /><rect x="144" y="64" width="16" height="16" fill="#00ADD8" /><rect x="176" y="64" width="16" height="16" fill="#00ADD8" /><rect x="208" y="64" width="16" height="16" fill="#2d333b" /><rect x="0" y="80" width="16" height="16" fill="#2d333b" /><rect x="32" y="80" width="16" height="16" fill="#00ADD8" /><rect x="64" y="80" width="16" height="16" fill="#00ADD8" /><rect x="96" y="80" width="16" height="16" fill="#00ADD8" /><rect x="128" y="80" width="16" height="16" fill="#00ADD8" /><rect x="160" y="80" width="16" height="16" fill="#00ADD8" /><rect x="192" y="80" width="16" height="16" fill="#2d333b" /><rect x="224" y="80" width="16" height="16" fill="#2d333b" /><rect x="0" y="96" width="16" height="16" fill="#2d333b" /><rect x="32" y="96" width="16" height="16" fill="#00ADD8" /><rect x="64" y="96" width="16" height="16" fill="#00ADD8" /><rect x="96" y="96" width="16" height="16" fill="#00ADD8" /><rect x="128" y="96" width="16" height="16" fill="#2d333b" /><rect x="160" y="96" width="16" height="16" fill="#00ADD8" /><rect x="192" y="96" width="16" height="16" fill="#00ADD8" /><rect x="224" y="96" width="16" height="16" fill="#2d333b" /><rect x="16" y="112" width="16" height="16" fill="#2d333b" /><rect x="48" y="112" width="16" height="16" fill="#00ADD8" /><rect x="80" y="112" width="16" height="16" fill="#00ADD8" /><rect x="112" y="112" width="16" height="16" fill="#2d333b" /><rect x="144" y="112" width="16" height="16" fill="#00ADD8" /><rect x="176" y="112" width="16" height="16" fill="#00ADD8" /><rect x="208" y="112" width="16" height="16" fill="#00ADD8" /><rect x="240" y="112" width="16" height="16" fill="#2d333b" /><rect x="32" y="128" width="16" height="16" fill="#2d333b" /><rect x="64" y="128" width="16" height="16" fill="#00ADD8" /><rect x="96" y="128" width="16" height="16" fill="#2d333b" /><rect x="128" y="128" width="16" height="16" fill="#00ADD8" /><rect x="160" y="128" width="16" height="16" fill="#00ADD8" /><rect x="192" y="128" width="16" height="16" fill="#00ADD8" /><rect x="224" y="128" width="16" height="16" fill="#2d333b" /><rect x="32" y="144" width="16" height="16" fill="#2d333b" /><rect x="64" y="144" width="16" height="16" fill="#00ADD8" /><rect x="96" y="144" width="16" height="16" fill="#2d333b" /><rect x="128" y="144" width="16" height="16" fill="#00ADD8" /><rect x="160" y="144" width="16" height="16" fill="#00ADD8" /><rect x="192" y="144" width="16" height="16" fill="#00ADD8" /><rect x="224" y="144" width="16" height="16" fill="#2d333b" /><rect x="16" y="160" width="16" height="16" fill="#2d333b" /><rect x="48" y="160" width="16" height="16" fill="#00ADD8" /><rect x="80" y="160" width="16" height="16" fill="#2d333b" /><rect x="112" y="160" width="16" height="16" fill="#00ADD8" /><rect x="144" y="160" width="16" height="16" fill="#00ADD8" /><rect x="176" y="160" width="16" height="16" fill="#00ADD8" /><rect x="208" y="160" width="16" height="16" fill="#2d333b" /><rect x="0" y="176" width="16" height="16" fill="#2d333b" /><rect x="32" y="176" width="16" height="16" fill="#00ADD8" /><rect x="64" y="176" width="16" height="16" fill="#2d333b" /><rect x="96" y="176" width="16" height="16" fill="#00ADD8" /><rect x="128" y="176" width="16" height="16" fill="#00ADD8" /><rect x="160" y="176" width="16" height="16" fill="#00ADD8" /><rect x="192" y="176" width="16" height="16" fill="#2d333b" /><rect x="16" y="192" width="16" height="16" fill="#2d333b" /><rect x="48" y="192" width="16" height="16" fill="#2d333b" /><rect x="80" y="192" width="16" height="16" fill="#00ADD8" /><rect x="112" y="192" width="16" height="16" fill="#00ADD8" /><rect x="144" y="192" width="16" height="16" fill="#00ADD8" /><rect x="176" y="192" width="16" height="16" fill="#2d333b" /><rect x="32" y="208" width="16" height="16" fill="#2d333b" /><rect x="64" y="208" width="16" height="16" fill="#2d333b" /><rect x="96" y="208" width="16" height="16" fill="#2d333b" /><rect x="128" y="208" width="16" height="16" fill="#2d333b" /><rect x="160" y="208" width="16" height="16" fill="#2d333b" />
            
        <animateTransform 
            attributeName="transform" 
            type="translate" 
            values="0 0; 0 -8; 0 0" 
            dur="3s" 
            repeatCount="indefinite" 
        />
        <animate
            attributeName="opacity"
            values="0.7; 0.4; 0.7"
            dur="2s"
            repeatCount="indefinite"
        />
        </g>
        <!-- Speech Bubble -->
        
    <g transform="translate(226, -25)">
      <!-- Speech bubble -->
      <rect x="0" y="0" width="167" height="24" rx="10" ry="10" 
            fill="#FFFFFF" stroke="#2d333b" stroke-width="1.5"/>
      <!-- Bubble tail -->
      <polygon points="15,24 20,32 25,24" 
               fill="#FFFFFF" stroke="#2d333b" stroke-width="1.5"/>
      <line x1="16" y1="24" x2="24" y2="24" stroke="#FFFFFF" stroke-width="2"/>
      <!-- Text -->
      <text x="83.5" y="16" 
            font-family="'Segoe UI', Arial, sans-serif" font-size="10" 
            fill="#2d333b" text-anchor="middle">Chúc Mừng Năm Mới! 🧧</text>
    </g>
  
        <!-- Seasonal Accessory (z-index: above pet) -->
        <!-- Seasonal: LUNAR_NEW_YEAR -->

    <g transform="translate(140, 0)">
      <!-- Envelope Body -->
      <rect x="0" y="0" width="35" height="50" rx="3" fill="#D32F2F"/>
      <rect x="2" y="2" width="31" height="46" rx="2" fill="#E53935"/>
      <!-- Gold Decorative Border -->
      <rect x="5" y="5" width="25" height="40" rx="1" stroke="#FFD700" stroke-width="2" fill="none"/>
      <!-- Coin Symbol with shine -->
      <circle cx="17.5" cy="25" r="10" fill="#FFD700"/>
      <circle cx="17.5" cy="25" r="7" fill="#FFC107"/>
      <!-- Chinese Character 福 (Fortune) stylized -->
      <rect x="14" y="20" width="7" height="2" fill="#D32F2F"/>
      <rect x="16" y="22" width="3" height="6" fill="#D32F2F"/>
      <rect x="14" y="25" width="7" height="2" fill="#D32F2F"/>
      <!-- Animated Sparkles -->
      <circle cx="10" cy="10" r="2" fill="#FFD700">
        <animate attributeName="opacity" values="0.3;1;0.3" dur="1s" repeatCount="indefinite"/>
        <animate attributeName="r" values="1.5;2.5;1.5" dur="1s" repeatCount="indefinite"/>
      </circle>
      <circle cx="28" cy="8" r="1.5" fill="#FFFFFF">
        <animate attributeName="opacity" values="0.5;1;0.5" dur="1.5s" repeatCount="indefinite"/>
      </circle>
      <circle cx="28" cy="40" r="1.5" fill="#FFD700">
        <animate attributeName="opacity" values="0.5;1;0.5" dur="1.2s" repeatCount="indefinite"/>
        <animate attributeName="r" values="1;2;1" dur="1.2s" repeatCount="indefinite"/>
      </circle>
    </g>
  
      </g>
      
      <!-- Level & Mood Text -->
      <text x="20" y="299" font-family="monospace" font-size="11" fill="#666">
        💀 Lv.0 
      </text>
      <text x="276" y="299" text-anchor="end" font-family="monospace" font-size="11" fill="#666">
        👻 GHOST 
      </text>
      
      <!-- XP Progress Bar -->
      <rect x="20" y="306" width="256" height="8" rx="4" fill="#e0e0e0" stroke="#0288d1" stroke-width="1"/>
      <rect x="20" y="306" width="0" height="8" rx="4" fill="#e53935">
        
      </rect>
      
      <!-- XP Text -->
      <text x="50%" y="329" text-anchor="middle" font-family="monospace" font-size="9" fill="#666">
        💀 DEAD - Commit to revive!
      </text>
    
      
      <!-- Achievement Badges -->
      <g transform="translate(15, 311)">
    <g class="achievements">
      
      <g transform="translate(5, 0)">
        <title>Weekend Warrior: Weekend commit</title>
        <circle cx="10" cy="10" r="10" fill="rgba(255,255,255,0.9)" stroke="#ddd" stroke-width="1"/>
        <text x="10" y="14" text-anchor="middle" font-size="11">🏖️</text>
      </g>
    
      
    </g>
  </g>
    </svg>