<svg xmlns="http://www.w3.org/2000/svg" width="296" height="341" viewBox="0 0 296 341">
      <style>
        .pet { transform-origin: center; }
      </style>
      <!-- Theme Background -->
      
        <rect x="5" y="5" width="286" height="326" rx="12" ry="12" fill="rgba(45, 51, 59, 0.15)"/>
      
      <!-- Weather Effects (behind pet) -->
      <g class="weather-layer" style="pointer-events: none;">
        
        <g>
          <circle cx="199.7950734616257" cy="188.76156046489632" r="3" fill="#FFEB3B" opacity="0.8">
          <animate attributeName="cx" values="199.7950734616257;221.2961823910782;199.7950734616257" dur="6.115034815819621s" repeatCount="indefinite"/>
          <animate attributeName="cy" values="188.76156046489632;181.87221873110823;188.76156046489632" dur="6.115034815819621s" repeatCount="indefinite"/>
          <animate attributeName="opacity" values="0.3;0.9;0.3" dur="1.5s" repeatCount="indefinite"/>
        </circle><circle cx="208.43518372275946" cy="244.8132562028626" r="3" fill="#FFEB3B" opacity="0.8">
          <animate attributeName="cx" values="208.43518372275946;224.342963073242;208.43518372275946" dur="3.3885904413283123s" repeatCount="indefinite"/>
          <animate attributeName="cy" values="244.8132562028626;268.1631561308529;244.8132562028626" dur="3.3885904413283123s" repeatCount="indefinite"/>
          <animate attributeName="opacity" values="0.3;0.9;0.3" dur="1.5s" repeatCount="indefinite"/>
        </circle><circle cx="66.71828720411457" cy="75.24019299618331" r="3" fill="#FFEB3B" opacity="0.8">
          <animate attributeName="cx" values="66.71828720411457;94.38902086075163;66.71828720411457" dur="5.558230556185344s" repeatCount="indefinite"/>
          <animate attributeName="cy" values="75.24019299618331;46.75957406186362;75.24019299618331" dur="5.558230556185344s" repeatCount="indefinite"/>
          <animate attributeName="opacity" values="0.3;0.9;0.3" dur="1.5s" repeatCount="indefinite"/>
        </circle><circle cx="182.89627160352728" cy="137.70361853444913" r="3" fill="#FFEB3B" opacity="0.8">
          <animate attributeName="cx" values="182.89627160352728;211.88352841340475;182.89627160352728" dur="4.159797506431565s" repeatCount="indefinite"/>
          <animate attributeName="cy" values="137.70361853444913;113.4649071382093;137.70361853444913" dur="4.159797506431565s" repeatCount="indefinite"/>
          <animate attributeName="opacity" values="0.3;0.9;0.3" dur="1.5s" repeatCount="indefinite"/>
        </circle><circle cx="259.640098220302" cy="45.641155640922975" r="3" fill="#FFEB3B" opacity="0.8">
          <animate attributeName="cx" values="259.640098220302;242.93523439349264;259.640098220302" dur="6.10664999327818s" repeatCount="indefinite"/>
          <animate attributeName="cy" values="45.641155640922975;60.94603284649055;45.641155640922975" dur="6.10664999327818s" repeatCount="indefinite"/>
          <animate attributeName="opacity" values="0.3;0.9;0.3" dur="1.5s" repeatCount="indefinite"/>
        </circle><circle cx="60.92426102737227" cy="151.27688460102263" r="3" fill="#FFEB3B" opacity="0.8">
          <animate attributeName="cx" values="60.92426102737227;82.32643366281052;60.92426102737227" dur="4.51020862355369s" repeatCount="indefinite"/>
          <animate attributeName="cy" values="151.27688460102263;163.22822163021036;151.27688460102263" dur="4.51020862355369s" repeatCount="indefinite"/>
          <animate attributeName="opacity" values="0.3;0.9;0.3" dur="1.5s" repeatCount="indefinite"/>
        </circle><circle cx="246.60523042261644" cy="279.6832582426578" r="3" fill="#FFEB3B" opacity="0.8">
          <animate attributeName="cx" values="246.60523042261644;262.506109260888;246.60523042261644" dur="4.624687996211731s" repeatCount="indefinite"/>
          <animate attributeName="cy" values="279.6832582426578;252.04224377958369;279.6832582426578" dur="4.624687996211731s" repeatCount="indefinite"/>
          <animate attributeName="opacity" values="0.3;0.9;0.3" dur="1.5s" repeatCount="indefinite"/>
        </circle><circle cx="178.82800140675403" cy="220.49622695254803" r="3" fill="#FFEB3B" opacity="0.8">
          <animate attributeName="cx" values="178.82800140675403;148.92539923991487;178.82800140675403" dur="4.505404441747095s" repeatCount="indefinite"/>
          <animate attributeName="cy" values="220.49622695254803;224.16152741028344;220.49622695254803" dur="4.505404441747095s" repeatCount="indefinite"/>
          <animate attributeName="opacity" values="0.3;0.9;0.3" dur="1.5s" repeatCount="indefinite"/>
        </circle><circle cx="151.76994088227121" cy="123.51556641678587" r="3" fill="#FFEB3B" opacity="0.8">
          <animate attributeName="cx" values="151.76994088227121;160.80996151291018;151.76994088227121" dur="4.642303982212993s" repeatCount="indefinite"/>
          <animate attributeName="cy" values="123.51556641678587;144.90217177793838;123.51556641678587" dur="4.642303982212993s" repeatCount="indefinite"/>
          <animate attributeName="opacity" values="0.3;0.9;0.3" dur="1.5s" repeatCount="indefinite"/>
        </circle><circle cx="27.408743536376278" cy="73.75188561428068" r="3" fill="#FFEB3B" opacity="0.8">
          <animate attributeName="cx" values="27.408743536376278;21.9331551649757;27.408743536376278" dur="5.654711223175206s" repeatCount="indefinite"/>
          <animate attributeName="cy" values="73.75188561428068;55.52764482595633;73.75188561428068" dur="5.654711223175206s" repeatCount="indefinite"/>
          <animate attributeName="opacity" values="0.3;0.9;0.3" dur="1.5s" repeatCount="indefinite"/>
        </circle>
        </g>
      
      </g>
      <!-- Evolution Effects (behind pet) -->
      <g class="evolution-layer" style="pointer-events: none;">
        
      </g>
      <g transform="translate(20, 20)" opacity="0.7">
        <g class="pet">
            <rect x="80" y="0" width="16" height="16" fill="#2d333b" /><rect x="112" y="0" width="16" height="16" fill="#2d333b" /><rect x="144" y="0" width="16" height="16" fill="#2d333b" /><rect x="48" y="16" width="16" height="16" fill="#2d333b" /><rect x="80" y="16" width="16" height="16" fill="#00ADD8" /><rect x="112" y="16" width="16" height="16" fill="#00ADD8" /><rect x="144" y="16" width="16" height="16" fill="#00ADD8" /><rect x="176" y="16" width="16" height="16" fill="#00ADD8" /><rect x="208" y="16" width="16" height="16" fill="#2d333b" /><rect x="32" y="32" width="16" height="16" fill="#2d333b" /><rect x="64" y="32" width="16" height="16" fill="#00ADD8" /><rect x="96" y="32" width="16" height="16" fill="#00ADD8" /><rect x="128" y="32" width="16" height="16" fill="#00ADD8" /><rect x="160" y="32" width="16" height="16" fill="#00ADD8" /><rect x="192" y="32" width="16" height="16" fill="#00ADD8" /><rect x="16" y="48" width="16" height="16" fill="#2d333b" /><rect x="48" y="48" width="16" height="16" fill="#00ADD8" /><rect x="80" y="48" width="16" height="16" fill="#2d333b" /><rect x="112" y="48" width="16" height="16" fill="#2d333b" /><rect x="144" y="48" width="16" height="16" fill="#00ADD8" /><rect x="176" y="48" width="16" height="16" fill="#00ADD8" /><rect x="208" y="48" width="16" height="16" fill="#2d333b" /><rect x="16" y="64" width="16" height="16" fill="#2d333b" /><rect x="48" y="64" width="16" height="16" fill="#00ADD8" /><rect x="80" y="64" width="16" height="16" fill="#2d333b" /><rect x="112" y="64" width="16" height="16" fill="#2d333b" /><rect x="144" y="64" width="16" height="16" fill="#00ADD8" /><rect x="176" y="64" width="16" height="16" fill="#00ADD8" /><rect x="208" y="64" width="16" height="16" fill="#2d333b" /><rect x="0" y="80" width="16" height="16" fill="#2d333b" /><rect x="32" y="80" width="16" height="16" fill="#00ADD8" /><rect x="64" y="80" width="16" height="16" fill="#00ADD8" /><rect x="96" y="80" width="16" height="16" fill="#00ADD8" /><rect x="128" y="80" width="16" height="16" fill="#00ADD8" /><rect x="160" y="80" width="16" height="16" fill="#00ADD8" /><rect x="192" y="80" width="16" height="16" fill="#2d333b" /><rect x="224" y="80" width="16" height="16" fill="#2d333b" /><rect x="0" y="96" width="16" height="16" fill="#2d333b" /><rect x="32" y="96" width="16" height="16" fill="#00ADD8" /><rect x="64" y="96" width="16" height="16" fill="#00ADD8" /><rect x="96" y="96" width="16" height="16" fill="#00ADD8" /><rect x="128" y="96" width="16" height="16" fill="#2d333b" /><rect x="160" y="96" width="16" height="16" fill="#00ADD8" /><rect x="192" y="96" width="16" height="16" fill="#00ADD8" /><rect x="224" y="96" width="16" height="16" fill="#2d333b" /><rect x="16" y="112" width="16" height="16" fill="#2d333b" /><rect x="48" y="112" width="16" height="16" fill="#00ADD8" /><rect x="80" y="112" width="16" height="16" fill="#00ADD8" /><rect x="112" y="112" width="16" height="16" fill="#2d333b" /><rect x="144" y="112" width="16" height="16" fill="#00ADD8" /><rect x="176" y="112" width="16" height="16" fill="#00ADD8" /><rect x="208" y="112" width="16" height="16" fill="#00ADD8" /><rect x="240" y="112" width="16" height="16" fill="#2d333b" /><rect x="32" y="128" width="16" height="16" fill="#2d333b" /><rect x="64" y="128" width="16" height="16" fill="#00ADD8" /><rect x="96" y="128" width="16" height="16" fill="#2d333b" /><rect x="128" y="128" width="16" height="16" fill="#00ADD8" /><rect x="160" y="128" width="16" height="16" fill="#00ADD8" /><rect x="192" y="128" width="16" height="16" fill="#00ADD8" /><rect x="224" y="128" width="16" height="16" fill="#2d333b" /><rect x="32" y="144" width="16" height="16" fill="#2d333b" /><rect x="64" y="144" width="16" height="16" fill="#00ADD8" /><rect x="96" y="144" width="16" height="16" fill="#2d333b" /><rect x="128" y="144" width="16" height="16" fill="#00ADD8" /><rect x="160" y="144" width="16" height="16" fill="#00ADD8" /><rect x="192" y="144" width="16" height="16" fill="#00ADD8" /><rect x="224" y="144" width="16" height="16" fill="#2d333b" /><rect x="16" y="160" width="16" height="16" fill="#2d333b" /><rect x="48" y="160" width="16" height="16" fill="#00ADD8" /><rect x="80" y="160" width="16" height="16" fill="#2d333b" /><rect x="112" y="160" width="16" height="16" fill="#00ADD8" /><rect x="144" y="160" width="16" height="16" fill="#00ADD8" /><rect x="176" y="160" width="16" height="16" fill="#00ADD8" /><rect x="208" y="160" width="16" height="16" fill="#2d333b" /><rect x="0" y="176" width="16" height="16" fill="#2d333b" /><rect x="32" y="176" width="16" height="16" fill="#00ADD8" /><rect x="64" y="176" width="16" height="16" fill="#2d333b" /><rect x="96" y="176" width="16" height="16" fill="#00ADD8" /><rect x="128" y="176" width="16" height="16" fill="#00ADD8" /><rect x="160" y="176" width="16" height="16" fill="#00ADD8" /><rect x="192" y="176" width="16" height="16" fill="#2d333b" /><rect x="16" y="192" width="16" height="16" fill="#2d333b" /><rect x="48" y="192" width="16" height="16" fill="#2d333b" /><rect x="80" y="192" width="16" height="16" fill="#00ADD8" /><rect x="112" y="192" width="16" height="16" fill="#00ADD8" /><rect x="144" y="192" width="16" height="16" fill="#00ADD8" /><rect x="176" y="192" width="16" height="16" fill="#2d333b" /><rect x="32" y="208" width="16" height="16" fill="#2d333b" /><rect x="64" y="208" width="16" height="16" fill="#2d333b" /><rect x="96" y="208" width="16" height="16" fill="#2d333b" /><rect x="128" y="208" width="16" height="16" fill="#2d333b" /><rect x="160" y="208" width="16" height="16" fill="#2d333b" />
            
        <animateTransform 
            attributeName="transform" 
            type="translate" 
            values="0 0; 0 -8; 0 0" 
            dur="3s" 
            repeatCount="indefinite" 
        />
        <animate
            attributeName="opacity"
            values="0.7; 0.4; 0.7"
            dur="2s"
            repeatCount="indefinite"
        />
        </g>
        <!-- Speech Bubble -->
        
    <g transform="translate(226, -25)">
      <!-- Speech bubble -->
      <rect x="0" y="0" width="104" height="24" rx="10" ry="10" 
            fill="#FFFFFF" stroke="#2d333b" stroke-width="1.5"/>
      <!-- Bubble tail -->
      <polygon points="15,24 20,32 25,24" 
               fill="#FFFFFF" stroke="#2d333b" stroke-width="1.5"/>
      <line x1="16" y1="24" x2="24" y2="24" stroke="#FFFFFF" stroke-width="2"/>
      <!-- Text -->
      <text x="52" y="16" 
            font-family="'Segoe UI', Arial, sans-serif" font-size="10" 
            fill="#2d333b" text-anchor="middle">So lonely...</text>
    </g>
  
        <!-- Seasonal Accessory (z-index: above pet) -->
        <!-- Seasonal: VALENTINE -->

    <g transform="translate(120, -35)">
      <g>
        <!-- Pixel Heart -->
        <rect x="4" y="0" width="8" height="4" fill="#FF6B9D"/>
        <rect x="16" y="0" width="8" height="4" fill="#FF6B9D"/>
        <rect x="0" y="4" width="28" height="4" fill="#FF6B9D"/>
        <rect x="0" y="8" width="28" height="4" fill="#FF8FAB"/>
        <rect x="4" y="12" width="20" height="4" fill="#FF8FAB"/>
        <rect x="8" y="16" width="12" height="4" fill="#FFB3C6"/>
        <rect x="12" y="20" width="4" height="4" fill="#FFB3C6"/>
        <!-- Sparkle -->
        <circle cx="8" cy="6" r="2" fill="#FFFFFF" opacity="0.7"/>
        <!-- Pulse animation -->
        <animateTransform 
          attributeName="transform" 
          type="scale" 
          values="1;1.1;1" 
          dur="1s" 
          repeatCount="indefinite"
          additive="sum"
        />
      </g>
    </g>
  
      </g>
      
      <!-- Level & Mood Text -->
      <text x="20" y="299" font-family="monospace" font-size="11" fill="#666">
        💀 Lv.0 
      </text>
      <text x="276" y="299" text-anchor="end" font-family="monospace" font-size="11" fill="#666">
        👻 GHOST 
      </text>
      
      <!-- XP Progress Bar -->
      <rect x="20" y="306" width="256" height="8" rx="4" fill="#e0e0e0" stroke="#0288d1" stroke-width="1"/>
      <rect x="20" y="306" width="0" height="8" rx="4" fill="#e53935">
        
      </rect>
      
      <!-- XP Text -->
      <text x="50%" y="329" text-anchor="middle" font-family="monospace" font-size="9" fill="#666">
        💀 DEAD - Commit to revive!
      </text>
    
      
      <!-- Achievement Badges -->
      
    </svg>